<?xml version="1.0" encoding="UTF-8"?>
<svg version="1.1" viewBox="0 0 2048 948" width="1280" height="1280" xmlns="http://www.w3.org/2000/svg">
<path transform="translate(592,183)" d="m0 0h17l21 1 4 3v8l-7 7-8 7-10 11-7 10-7 12-3 5-12 3-35 3-28 5-19 4-15 4-26 8-12 5-28 11-10 6-1 2 17-3 23-5 22-3 12-2 30-4 21-2 20-1h47l42 5 31 5 37 8 24 6 9 3 100 1 15 3 14 6 10 8 7 9 6 12 3 14 1 13 5 2 13 7 4 1 1-74 2-1h126l2 2v39l-2 2h7l10-2 7-1 1-1 1-37 2-2h53l3 2 1 37 35 1 6 3-1 5-10 5-5 6 6-2 9-6 3-3h2v-2l5-5 4-6 4-10 2-10 1-12 3-3h55l3 3-1 18-4 16-6 14-10 14-6 7-8 7-10 7h-2l1 3 13 9 10 10v2h2l10 14 5 13 3 7 2 10 1 10v9l-2 2h-57l-2-2-2-16-3-12-6-11-9-10-7-5-15-6-18-2-1 1-1 61-2 2h-54l-2-1-1-10-7 1-15 5-1 4-2 1-17 1 3 6 9 10 5 8 2 8 9 1 6 4 2 4v34l4-1 14-15 5-5 8 1 6 5 1 8-4 7-10 9-3 1 1 5 17 17 1 5-4 7-5 3h-6l-8-5-8-9-7-8-2-1v20l-5 3h-2l2 21 3 16 2 8-1 5-8-1-6-3-7-3-14-7-10-7-14-10-13-11-12-11-7-7-6-7-5-3v17l-5 3h-9l-6-3-2-3-1-37-3-6-7-1-8 2-1 46-4 2h-10l-6-3-2-4v-47l4-6 8-5 12-4-6-8-4-5-8-8v-2h-2l-7-8-5-6-5-5-13-12-12-11-10-7-9-6-11-6v-2l-9-3-8-4-24-8-1 9 2 4 8 5 15 14 5 6v1h-11l-18-3-2 9-2 2h-55l-2-2-1-10-21 1v8l-2 3-60 1-28 9-15 5-25 11-1 4 13 11 14 14 11 6 7 8 4 8 2 10-2 16-6 10-8 7-11 4h-17l-9-3-8-6-6-8-4-11-37 4-1 1-1 12-4 5-10 5-7 1h-19l-8-2-8-5-5-6-7 1-5 8-6 3h-6l-6-3-8 1-22 8-13 5-32 16-18 11 8-1 41-11 28-6v4l-13 11-10 9-11 9-15 12-13 10-18 13-12 8-11 7-10 6-23 13-28 13-17 6-23 6-26 3-9 1h-37l-19-3-11-4-5-6-3-12-3-9-4-14-4-17-4-29-2-25v-35l2-28 3-19 2-13 4-19 7-25 11-28 9-20 11-21 11-17 9-14 4-5 1-83 3-3 83-1 12-9 10-7 15-10 7-5 10-5 16-9 23-12 26-12 29-12 22-8 25-7 23-7 21-5 22-5 24-4 24-3 13-1zm387 165-1 1v16l2 1 15-5 30-7 17-2 2-1v-3zm-390 225-7 1-1 4 3 6 5 3h7l5-3 3-6v-4zm-96 11-10 2 2 2h7l3-1v-3z" fill="#D14F2E"/>
<path transform="translate(922,306)" d="m0 0h126l2 2v39l-2 2h7l10-2 7-1 1-1 1-37 2-2h53l3 2 1 37 35 1 6 3-1 5-10 5-5 6 6-2 9-6 3-3h2v-2l5-5 4-6 4-10 2-10 1-12 3-3h55l3 3-1 18-4 16-6 14-10 14-6 7-8 7-10 7h-2l1 3 13 9 10 10v2h2l10 14 5 13 3 7 2 10 1 10v9l-2 2h-57l-2-2-2-16-3-12-6-11-9-10-7-5-15-6-18-2-1 1-1 61-2 2h-54l-2-1-1-10-7 1-15 5-1 4-2 1-21 1-106-1-2-4v-100l1-70zm57 42-1 1v16l2 1 15-5 30-7 17-2 2-1v-3z" fill="#030101"/>
<path transform="translate(500,306)" d="m0 0h57l5 5 8 9 10 16 10 18 8 16 4 7 3-1 6-14 10-19 11-18 9-12 8-7h56l3 3v169l-2 3h-55l-2-1-1-3-1-76-7 26-5 15-2 7-1 1h-59l-4-10-6-23-4-14h-1l-1 75-1 3-3 1h-52l-3-2v-172z"/>
<path transform="translate(896,369)" d="m0 0 1 2 5 2 13 7 4 1 1 96 1 3 113 1-3 1 3 6 9 10 5 8 2 8 9 1 6 4 2 4v34l4-1 14-15 5-5 8 1 6 5 1 8-4 7-10 9-3 1 1 5 17 17 1 5-4 7-5 3h-6l-8-5-8-9-7-8-2-1v20l-5 3h-2l2 21 3 16 2 8-1 5-8-1-6-3-7-3-14-7-10-7-14-10-13-11-12-11-7-7-6-7-5-3v17l-5 3h-9l-6-3-2-3-1-37-3-6-7-1-8 2-1 46-4 2h-10l-6-3-2-4v-47l4-6 8-5 12-4-6-8-4-5-8-8v-2h-2l-7-8-5-6-5-5-13-12-12-11-10-7-9-6-11-6v-2l-9-3-8-4-24-8-1-2 4-1 50-1 12-2 12-5 11-8 7-9 5-10 3-9z" fill="#DCAD35"/>
<path transform="translate(733,306)" d="m0 0h108l15 3 14 6 10 8 7 9 6 12 3 14v20l-2 13-5 11-5 8-6 7-11 8-14 5-9 1-54 1v11l2 4 8 5 15 14 5 6v1h-11l-18-3-2 9-2 2h-55l-2-2v-171z"/>
<path transform="translate(240,305)" d="m0 0 25 1 16 3 13 5 14 12 6 10 5 13 1 3v34l-4 11-6 12-6 7-13 9-13 5-21 2-42 1-1 46-3 3h-52l-5-3v-170l3-3z"/>
<path transform="translate(345,306)" d="m0 0h128l2 2v38l-2 2-69 1-1 19 1 4 60 1 2 4v34l-3 4-59 1v22l69 1 2 2 1 36-2 4-7 1h-120l-3-2-1-3v-166z"/>
<path transform="translate(1387,306)" d="m0 0h125l4 4v35l-3 3-69 1-1 2v19l1 2 60 1 2 2v37l-4 3h-55l-4 1v23h68l4 2 1 2v34l-3 4h-127l-2-2v-171z" fill="#040202"/>
<path transform="translate(922,306)" d="m0 0h126l2 2v39h-71v25l60 1 3 5-1 34-1 2-4 1h-50l-6 1-1 4v19h68l4 3v32l-1 6-2 1-21 1-106-1-2-4v-100l1-70z"/>
<path transform="translate(1782,306)" d="m0 0h54l3 3 2 21 4 17 4 9 6 9 9 6 6 2h9l10-4 8-8 6-12 4-14 2-14 1-13 2-2h55l3 4-1 15-2 13-2 9-5 15-9 16-11 12-7 6-5 2v2l-18 8-6 1v70l-3 2h-54l-2-3-1-68-15-6-11-6-11-9-11-13-8-15-4-11-4-18v-24z" fill="#050303"/>
<path transform="translate(551,278)" d="m0 0h47l42 5 31 5 37 8 24 6 9 3v1l-10 2-1 161-22 1-1-161-2-2h-56l-8 7-10 14-11 19-9 17-6 13-3 1-6-10-8-16-13-23-10-14-5-5v-2l-3-1v-2l-58 1-1 1-1 79h-3l-12 1h-10-3l-2 1v-12l-1-7-13-1v-2l-6 1-12-1 1-3-2-2h-7l1-3 19-1 7-2h9l5-2h3v-2l-3 1h-14l-14-2v-1h34l3-2-1-3 1-33 1-2-1-2-3-1-26-1 2-2 2-1-3-1v-3h-2l-1-3-3 1v2l2 2h-2v2l-17-1-6-2-18 1 1-4 4-2-1 4 17-3 23-5 22-3 12-2 30-4 21-2z" fill="#D88737"/>
<path transform="translate(1541,306)" d="m0 0h53l3 2 1 93v39h61l4 2v37l-2 2h-121l-2-2v-171z" fill="#040202"/>
<path transform="translate(1688,306)" d="m0 0h53l3 2 1 131 62 1 3 2 1 10v25l-2 4h-121l-2-1v-172z" fill="#040202"/>
<path transform="translate(592,183)" d="m0 0h17l21 1 4 3v8l-7 7-8 7-10 11-7 10-7 12-3 5-12 3-35 3-28 5-19 4-15 4-26 8-12 5-5 2-3-1 7-2 1-3 5-3 5-1-1-3h7l-1-2-14-2-1-2 2-2v-3h-4l1-4 2-6v-10l-2-6 3-1 4 1 2-2 2-7h9l4-2v-4l-2-2 4-2-1-2h-7l-1-4h2v-2l-11 2-8 3-2-2 16-5 21-5 22-5 24-4 24-3 13-1z" fill="#D67939"/>
<path transform="translate(1029,481)" d="m0 0h5l-3 1 3 6 9 10 5 8 2 8 9 1 6 4 2 4v34l4-1 14-15 5-5 8 1 6 5 1 8-4 7-10 9-3 1 1 5 17 17 1 5-4 7-5 3h-6l-8-5-8-9-7-8-2-1v20l-5 3h-2l2 21 3 16 2 8-1 5-8-1-6-3-7-3-14-7-10-7-14-10-13-11-12-11-7-7-6-7-5-3 1-4 5 4 5 3 2 5h2l6 7v2h2v2l4 1 1-2 3 3v3l5 4 5 1 1 2 6-1-5-6h2l-2-4-3-2-1-3-3 2-1-3 1-6h2v-5l-2-2v-15l1-22 2-4 1-6h1l1 59 1 4 4 1 2 1h11l4-2v-59l-4-4-2-1v-2h-12l-3-1-1-4h-2v-4l5 1 5 3h8l3-1 4-7v-7l-1-5-5-2h-9l-5 3-3 4-1 9-3-1-1-8 2-6 6-5 6-3h9l5 2 1-4 1 8 2-1 3-7-1-4-4 1-2-4-6 1-2-3 5-1-3-3-15-1-32-1v-1l48-1z" fill="#E0BC54"/>
<path transform="translate(1073,345)" d="m0 0 1 3v122l-8 1-15 5-1 2v-36l-3-2-68-1-1-3v-16l2-5 6-1h54l1-36-2-4-58-1-2-1-1-7 10-3 23-6 21-4 12-1v-3h-65v-1h70l-1 2h7l10-2 7-1z" fill="#DEB84E"/>
<path transform="translate(592,183)" d="m0 0h17l21 1 4 3v8l-7 7-8 7-10 11-7 10-7 12-3 5-12 3-35 3-28 5-19 4-3 1 1-3 13-3 10-2 10-1v-2l5-1 3-2 16-1 3-1 1-3-11-1-4-3-5-2-1-4 5-22-3-9h3l-1-6-4-1v-2l-5-1h-3l-1-1h-14l-1 1-14 1 3-2 24-4 24-3 13-1z" fill="#D88737"/>
<path transform="translate(500,306)" d="m0 0h57l5 5 8 9 10 16 10 18 8 16 4 7 3-1 6-14 10-19 11-18 9-12 8-7h56l3 3v169l-2 2 1-10-3-1 1-39-1-5v-111l-3-3-9-1h-36l-1 5-9 2-4 1-2 5v5h-6l-3 10-3 7-5 5-2 3-1 17-3 2v-2h-2v2l-4 2-3 7-3 3-3 1-3-3v-2l-4-1h-3v-7l-3-9-4-5v-4l-3-1-3-9h-2l-2-9-3-1-4-5-2-7-3-2-1 2-3-7-5-2-8-2-1-1-16-1h-19v3h-2v2h-5l-1 16v32l1 2 1 19v9h-2v71l1 10h2l2 4 5 1h30l9-2-1-8-1-4 2 1 1-9-1-6 2-1-1-7 1-11v-17l-3 3-1-4 2-3-3-1v-15h7l4-1 2 6h2v2l5 2v-5l3 1 1-2v11l-1 3h-2l1 13 1 4h2v9l3 5 1 4 6 1h31l7-1v-2l-5-1 1-4 8 5 4-4 1-5 3-8h3l1-7 4-16 2-6 2-5 11 1 1 2v18h-1l-2-11-2 3 1 8-1 3v39l2 2-1 13 1 7v3l-5-1-1-3-1-76-7 26-5 15-2 7-1 1h-59l-4-10-6-23-4-14h-1l-1 75-1 3-3 1h-52l-3-2v-172z" fill="#090103"/>
<path transform="translate(506,283)" d="m0 0h15v1h-8l-1 8 11-4 4 1-1 3h8v3l-6 3-1 6h-12l-5-4-2-1v3l4 1 2 2-15 1-1 1-1 79h-3l-12 1h-10-3l-2 1v-12l-1-7-13-1v-2l-6 1-12-1 1-3-2-2h-7l1-3 19-1 7-2h9l5-2h3v-2l-3 1h-14l-14-2v-1h34l3-2-1-3 1-33 1-2-1-2-3-1-26-1 2-2 2-1-3-1v-3h-2l-1-3-3 1v2l2 2h-2v2l-17-1-6-2-18 1 1-4 4-2-1 4 17-3 17-2 10-2 31-5 13-2z" fill="#D57738"/>
<path transform="translate(588,535)" d="m0 0h13l14 7 7 8 4 8 2 10-2 16-6 10-8 7-11 4h-17l-9-3-8-6-6-8-4-11v-11l3-12 6-9 5-4 8-4zm1 38-7 1-1 4 3 6 5 3h7l5-3 3-6v-4z" fill="#090505"/>
<path transform="translate(756,515)" d="m0 0h7l7 3 2 3v16l11-2 12 1 10 5 5 5 3 9 1 4v41l-3 3-3 1h-9l-6-3-3-7-1-36-3-3-6-1-7 3-1 44-5 3h-9l-6-3-2-2v-82z" fill="#0B0808"/>
<path transform="translate(391,515)" d="m0 0h9l5 2 3 3 1 37 7-6 15-15 8 1 3 1 4 6v8l-7 8-9 8 1 4 9 9 7 8 2 5-4 7-6 3h-6l-6-3-5-5-7-8v-2l-3-1-3-3-1 20-4 2h-12l-5-3-2-4v-79l2-2z" fill="#0B0204"/>
<path transform="translate(1051,515)" d="m0 0h8l6 4 2 4v34l4-1 14-15 5-5 8 1 6 5 1 8-4 7-10 9-3 1 1 5 17 17 1 5-4 7-5 3h-6l-8-5-8-9-7-8-2-1v20l-2 2-6 1h-9l-5-5-1-2v-79l1-2z" fill="#0E0909"/>
<path transform="translate(180,535)" d="m0 0h12l12 2 8 4 5 5 3 7v42l-8 7-15 4h-15l-11-3-9-6-3-5-1-5v-7l3-8 5-5 10-4 14-1 7-1-2-5-2-1h-18l-5 2h-5l-3-5v-8l5-5 9-3z" fill="#080002"/>
<path transform="translate(481,535)" d="m0 0h10l10 2 10 5 5 5 2 5 1 28-1 14-4 5-10 5-7 1h-19l-8-2-8-5-5-6-1-12 3-8 8-6 12-3 16-2-1-4-3-2h-17l-6 2-5-1-3-7 2-7 5-4 6-2zm12 49-10 2 2 2h7l3-1v-3z" fill="#030202"/>
<path transform="translate(336,536)" d="m0 0h13l10 3 8 6 5 5 2 6v14l-3 3-13 3-24 3 2 5 7 2h13l8-2 6 1 2 3v8l-4 5-6 3-10 2h-11l-11-3-10-5-8-11-2-6-1-14 2-12 5-8 8-7 7-3z" fill="#080002"/>
<path transform="translate(345,306)" d="m0 0h128l2 2v38l-2 2-69 1-1 19 1 4 60 1 2 4v34l-3 4-59 1v22l69 1 2 2 1 36-2 4-7 1h-120l-3-2-1-3v-166zm24 2-17 1 1 6 1 2h-2l-1-3-3 1v2h-2v6l1 2h2v4l-3 1v139l1 3 5 1 1-3h2l-1 4-3 1 2 3 29 1h63l3-1v-2l6 3 16-1 1-2 1-7v-24l-1-2-6 1-3 2-5-4-40 1-1 1h-9l-5-2-3-5-1-7v-9l4-10 10-2 5 2h41l3-2v-5l-4 3 2-8h2v-7l-1-2 2-5v-5l-5-5h-41l-5 2h-11l-1-9-1-7 1-14h2v-2l6-1h8l2 1h34l8-1h7l5-4-1-6h1l1-5v-12h-2l-1-4-8-1 1-2h-8l-6 1-1-2h-41v2h-3v-2l-6-1z" fill="#080002"/>
<path transform="translate(1142,535)" d="m0 0 14 1 11 4 7 6 3 8 1 13v20l-2 9-8 6-5 2-21 2-13-3-8-5-4-5-1-2v-15l5-7 8-4 11-2 14-2-1-4-7-3h-9l-11 3-4-1-2-3v-10l5-4 8-3zm8 41-10 2-2 1v6l4 3h10l3-2v-9z" fill="#0F0908"/>
<path transform="translate(700,535)" d="m0 0 14 1 9 3 7 5 4 6 1 4v40l-5 5-7 4-8 2h-21l-10-3-8-7-2-3-1-5v-7l3-8 6-5 8-3 22-3-2-5-7-2h-8l-11 3-4-1-2-2-1-8 3-5 4-3 7-2zm8 41-11 2-2 5 1 3 3 2h11l3-3v-8z" fill="#0F0807"/>
<path transform="translate(850,535)" d="m0 0 15 1 11 4 8 9 2 5v39l-2 4-10 6-9 2h-20l-10-3-9-8-2-6v-9l4-8 7-5 6-2 22-3-1-4-7-3h-8l-15 3-3-3-1-2v-7l5-6 9-3zm9 41-11 2-2 2v5l4 3h11l3-2v-10z" fill="#0C0605"/>
<path transform="translate(261,535)" d="m0 0h11l13 3 6 4 5 6 2 6v48l-3 2h-13l-5-3-2-4-1-39-2-3h-11l-4 1v45l-1 2-3 1h-11l-6-3-2-4v-48l3-5 8-5 10-3z"/>
<path transform="translate(1221,535)" d="m0 0 13 1 11 4 7 7 3 8 1 12v32l-2 4-4 1h-9l-6-3-3-6-1-38-2-2-6-1-7 2-1 1-1 45-5 2h-10l-6-4-1-2v-50l4-5 10-5 7-2z" fill="#0D0908"/>
<path transform="translate(927,535)" d="m0 0h9l11 2 11 6 3 5 3 9v44l-5 3h-9l-6-3-2-3-1-37-3-6-7-1-8 2-1 46-4 2h-10l-6-3-2-4v-47l4-6 8-5 8-3z" fill="#060302"/>
<path transform="translate(240,305)" d="m0 0 25 1 16 3 13 5 14 12 6 10 5 13 1 3v34l-4 11-6 12-6 7-13 9-13 5-21 2-42 1-1 46-3 3h-52l-5-3v-170h1l1 83 3 4v10l-1 2v65l3 5h47l1-8v-35l3-8 8-1 1 1 45 1 13-3 5-3h2l2-4 1-4 3-1 5 1 5-2v-2h2v-5l2-1 1-3 4-4v-7l3-11h2l1-9-1-3h-3v-8l-2-14-2-5-3-1 1-5-2-6-5-1-1-3-3-1-4-4-9-1-3-1-1-3-12-3h-11l-2 1-14 1-6-2v-2h-77v-3z" fill="#170706"/>
<path transform="translate(686,292)" d="m0 0 8 1 23 5 17 5 7 2v1h-11l-3 6h-4v2h2l2 4 1 11-1 4v60l1 12-1 10-5-1-2-3v-4l-3 1-1 4-6-1-1-19v-61l2-7-1-1v-6l7-4-3-5-7-2-4-1-28-1-3-1 1-3 4-2h9l8-2-8-3z" fill="#DCAF35"/>
<path transform="translate(648,515)" d="m0 0 8 1 5 5v80l-5 3h-9l-6-3-2-4-1-41 1-38z" fill="#120805"/>
<path transform="translate(794,347)" d="m0 0h23l8 2 6 4 5 9 1 10-3 8-2 4-7 5-6 2h-28l-1-1v-42z" fill="#DCA836"/>
<path transform="translate(215,348)" d="m0 0h31l8 4 4 5 3 9-1 11-6 9-2 2-6 2-28 1-4-2v-40z" fill="#D14E2D"/>
<path transform="translate(1012,536)" d="m0 0h10l6 4 1 2v59l-5 3h-11l-5-3-2-6v-56z"/>
<path transform="translate(261,535)" d="m0 0h11l13 3 6 4 5 6 2 6v48l-3 2h-13l-5-3-2-4-1-39-2-3h-11l-4 1v45l-1 2-3 1h-11l-6-3-2-4v-48l3-5 8-5 10-3zm9 4-14 1-5 4 1 1-7 2-7 7-1 7v22l3 8 2 5 5 1 6 1 2-5-2-7 1-1 1-32 17-2-1-3-4-1 2-1 5 2 1-1v6l2 5v11l3 1 1-7 2 1v9l-1 4h-2l-1-3-1 1v10l2 1 2-4v3l2 1-4 9 1 2h8l1-3 4-1 1-8v-27l-2-7-13-6v-4z" fill="#080002"/>
<path transform="translate(481,535)" d="m0 0h10l10 2 10 5 5 5 2 5 1 28-1 9-2-2v-6h-8l-8 3-2 3-6 1 3-1v-3l-10 3-3 2 1 3-3 1v5l-2-4-4-1v-2h5l-3-7-5-7v-2l7-1h8v-2l5-1 7 2 1 2h10l2-1 1 4 2-1-1-3 1-4v-10l-3-7-1-7-7-2-10-4h-6l-3 2h-3v3l-3-1v-2h-7l-3 5-2 4 5 1 6-4 3 1v2h16l2 1 1-2 2 6 2 2-1 4-12 6-5-1-5 1-10 1-4 2-4 5 1 9 2 4-1 4-3 4-4-5-1-12 3-8 8-6 12-3 16-2-1-4-3-2h-17l-6 2-5-1-3-7 2-7 5-4 6-2z" fill="#0A0103"/>
<path transform="translate(894,354)" d="m0 0 2 4v20l-2 13-5 11-5 8-6 7-11 8-14 5-9 1-54 1v11l2 4 8 5 15 14 5 6v1h-11l-18-3-2 9h-1l-1-6-2-1-1-8v-14l1-4-4-5 1-4 5-4v-3h2l1-3 2 1v-2l16 2 4-2 9 2h19l11-2 11-4h2l2-5 6-3 2-4v-3l6-3 3-1-1-3h2l2-8v-8l4-4 1-4 2-5h1z" fill="#0E0405"/>
<path transform="translate(708,412)" d="m0 0 8 3 8 2 3 1 1 2v40 1l1-45h1v53l-22 1z" fill="#D14E2D"/>
<path transform="translate(986,417)" d="m0 0 22 1 7 1h15l3 1 2 7 5 3v2l-5 3-16 1 6 1-2 2h-44l-1-3v-16l4 2 1-3h2z" fill="#DCAD35"/>
<path transform="translate(922,306)" d="m0 0h126l2 4-19-1h-108l-2-1 1 69 4-1-1 4 1 8-3-1-1 73 1 1-1 12h3l4 4 32 1 2-2h10l1 3 7-1h49l1 1 15 1 1-2 3 2-2 1-21 1-106-1-2-4v-100l1-70z" fill="#0C0204"/>
<path transform="translate(396,519)" d="m0 0 8 4v4 8l-1 2v7l1 4h-2l1 2h2l1 5-3 8 2 6-2 6 1 4v19l-1 3h-6l-1-4-5 1-2-2-1-10 1-1 1-9 1-2v-8l-1-3v-40l5-3z"/>
<path transform="translate(323,548)" d="m0 0 8 1 1 4-4 4h-2l-1 5 3 7-1 2 13-4 6 1-2 1v6l-16 2-5-4-2 1-1 5 7 1 8 8 10 2 4 1-1 2-1 1 4 1 11-7 3 1 1 4-4 6h-10l-2 2-8 2-5-4-12-2-1-3 1-5h-6l-1-1-1-9-3-1-1-4 2-16h2l2-7z"/>
<path transform="translate(798,341)" d="m0 0 17 1 4 2h9l4 1 1-1h5l4 2 1 2h-5l3 4 3 1-1 8-2 6-1 10 5 1 1 2-2 13h-3l1-2-2-4-3-1v-2l-6 5-1 2-14 3h-13l-5 1-10-2-2-6-1-7-1-1 1-18-1-11 1-3 8-4zm-4 6-4 1v42l1 1h28l9-4 4-3 4-8 1-10-4-10-4-5-7-3-5-1z" fill="#080002"/>
<path transform="translate(1038,354)" d="m0 0h12l4 3-1 5-3 2-6-1 4 5v6l-8-4-3-1-1-2-7 1-4 1v2h15l2 3-1 4-2-4-58-1v-2l3-1 2-3-1-2 9-2 14-2 10-4h6l2-1h9z" fill="#DCAB35"/>
<path transform="translate(650,305)" d="m0 0h57l8 3 3 5-7 4v6l1 2-2 6v80l6 1 1-5h3l3 7 4 1v-14l-1-8v-60l1-7-2-12h-2v-2l4-2 3-5h5l-4 3-1 108-1 45h-3l1-4v-39l-11-2-6-2-2-2-1-103-2-2-55-1z" fill="#D78235"/>
<path transform="translate(218,342)" d="m0 0 20 1 1 1 19 3 8 6 2 2h1l1 7-4 2-1 4v9l-7 14-10 2-13 1h-22l-4-7v-12l1-7-2-7 1-14zm-3 6-1 1v40l6 2 26-1 7-3 6-8 2-7-1-10-4-8-5-4-5-2z" fill="#080002"/>
<path transform="translate(733,306)" d="m0 0h108l7 1v1l-14 1h-96l-2 4h-3l1 88v14l1 2-1 22-1 29 2 1-1 1-1 7-3 2v-171z" fill="#090103"/>
<path transform="translate(436,541)" d="m0 0 4 1 2 5-1 6-3 1v2l-6 5h-12l2 4 4 3-1 4h-2v6l5 1 4 1 1 3 4 1 1 4 1 6h-2l3 3 2 1v2h-2v3l-4-1-1-2h3v-2l-6-2v-2l-4 1-1-6-10-4-1-5h-2l-3-5-5-2v-9l7-1 4-9 6-4 7 1-2-5 4-4z"/>
<path transform="translate(1132,343)" d="m0 0 1 2 35 1 6 3-1 5-10 5-5 6v2l-13 3-11 1-1-1z" fill="#DFBD4F"/>
<path transform="translate(978,368)" d="m0 0 1 4 60 1 3 5-1 34-1 2-4 1h-50l-6 1-2 4-1-5 2-2-1-2 7-2h7l1 1h28l6-1 3-2 4 1v-3h2l-1-7v-8l-2-5v-7l-5-1v-1h6v-2l-6 1h-35l-2 2-7 1-2-3-4-2z" fill="#080002"/>
<path transform="translate(207,546)" d="m0 0h5l3 4 2 9v19h-2l-1 6 1 1v6l-2 2-6-1-4 1-1-10v-5l3-1 2-6v-2l-4-1-2-6v-7l3-3 2-5z"/>
<path transform="translate(1076,306)" d="m0 0h53l2 2-7 1h-48v36l1 5 2 1v6l-3 5v93l1 3 2 1-1 5h-2l1 5-1 6 2 2v3h42v1h-44l-2-1-1-13v-119l1-40z" fill="#100405"/>
<path transform="translate(972,417)" d="m0 0 2 4 3-1 1 1 1 18h68l4 3v32h-2v3h-3l-1-3 2-1v-10l1-5h-2l1-12-2-3-61 1-5-2-2-5v-5l-3-1-1 6-2-3-2-7 2-3z" fill="#090103"/>
<path transform="translate(1012,536)" d="m0 0h10l6 4 1 2v59l-5 3h-11l-5-3-2-6v-56zm4 3-2 2h-3l-2 1v45l1 4-2 5 3 1v2h2v2l4-1 3-1 6-1 1-1v-47l-3-8h-5z" fill="#080002"/>
<path transform="translate(174,569)" d="m0 0 7 1 3 3-1 2h-7l-1 5 2 6v2l10 3v3 2l5-1 9-2 8 1 2 3-4 2-7 1-4 3h-11l-12-4-1-6-7 1-2-1v-3l2-1 2-5 2 1 3-5-2-2 1-7z"/>
<path transform="translate(1014,507)" d="m0 0h9l5 3 2 5v7l-5 8-3 1h-8l-5-3-4-6v-7l6-7z" fill="#080002"/>
<path transform="translate(339,539)" d="m0 0 9 1 8 3 4 4 6 5 3 10 1 1v6l-5 1-6-3-1 4h-5l-3-4v-2h3l2-3 7-1 1-1-1-4-7 1-1-4 2-4h-5v2h-9l-7 1-3-2 1-7 3-3z"/>
<path transform="translate(790,446)" d="m0 0 9 5 16 15 5 6v1h-11l-19-3z" fill="#D1512D"/>
<path transform="translate(458,290)" d="m0 0h8l9 2-3 2-7 2 1 3 2 2-7 2h-3v-2l-9 1 1-3-3-1-1-3-3 1v2l2 2h-2v2l-17-1-6-2-18 1 1-4 4-2-1 4 17-3 17-2 10-2z" fill="#D57638"/>
<path transform="translate(588,554)" d="m0 0h9l5 5 2 5v10h-22v2l-2-1v-7l4-11z" fill="#D2572F"/>
<path transform="translate(922,306)" d="m0 0h126l2 4-19-1h-108l-2-1v70l-2 3 1-74z" fill="#592318"/>
<path transform="translate(588,535)" d="m0 0h13l7 3-4 1-7 4-8-2h-7l-5 3-1 2h-3l-1 3-5 5h-2l-4 24-1 1-1 4-2-6v-11l3-12 6-9 5-4 8-4z" fill="#100708"/>
<path transform="translate(1045,516)" d="m0 0h6l2 2-2 4h-4l1 26v47h2l2-3 2 5 6 3-1 4h-9l-5-5-1-2v-79z" fill="#080002"/>
<path transform="translate(584,547)" d="m0 0 9 2 7 3 1-2 3-1 3 2 1 5h-4l2 5 1 3v10h-2v5l-2 1v-16l-4-8-2-1h-9l-4 4-3 9v7l-4 1-4-6-1-1 1-7 3-1v2h2l2-10-4 1 4-5z" fill="#0A0203"/>
<path transform="translate(1387,306)" d="m0 0h125l2 2-3 1h-123z" fill="#541F14"/>
<path transform="translate(927,535)" d="m0 0h9l11 2 11 6 3 5 3 9v28h-3l-1-8 1-24-6-1-2-1-2-4-4-2h-5l-1-4-7-2h-11l-5-1 2-2z" fill="#0C0305"/>
<path transform="translate(1131,308)" d="m0 0h1l2 62 15-2 11-2v3l-6 5-16-1-2 4-5-1-3-10-1-7 1-10v-5l2-1v-33z" fill="#0A0103"/>
<path transform="translate(650,305)" d="m0 0h57l8 3 3 5-7 4v6l1 2-2 6v48l-1 33h-1l-1-103-2-2-55-1z" fill="#D67B38"/>
<path transform="translate(186,539)" d="m0 0h5l7 3h2v7l-3 2h-8l-2-2-4 1-2 1h-9v-2l-4-1 2-5 9-3z"/>
<path transform="translate(1541,306)" d="m0 0h53l3 2 1 93v29h-1l-1-28-1-94-4 1h-50l-2-2z" fill="#8C4636"/>
<path transform="translate(551,300)" d="m0 0 5 1 7 4 7 9 6 8 1 7h2v2l4 2 3 6 1 5 7 13 2 2-1 4-3-3-7-14-10-17-10-14-5-5v-2l-3-1v-2h-13l3-3z" fill="#D46D36"/>
<path transform="translate(787,430)" d="m0 0 4 2-1 11 1 7-1 27-2 2-1-6-2-1-1-8v-14l1-4-4-5 1-4 5-4z" fill="#1A0F0F"/>
<path transform="translate(741,306)" d="m0 0h100l7 1v1l-14 1h-94z" fill="#60261A"/>
<path transform="translate(862,467)" d="m0 0 7 6 11 9 17 17v2l4 2v2h2l4 6 10 10 2 1 3 6 6 5-1 3-3-1-6-8-4-5-8-8v-2h-2l-7-8-5-6-5-5-13-12-12-11-2-2z" fill="#E7CE7D"/>
<path transform="translate(443,292)" d="m0 0h5l-2 1v2l-3 1v2l2 2h-2v2l-17-1-6-2-18 1 1-4 4-2-1 4 17-3 17-2z" fill="#D57737"/>
<path transform="translate(1912,306)" d="m0 0h55l1 2-9 1-47 1-1 5h-1v-7z" fill="#4D1C12"/>
<path transform="translate(186,577)" d="m0 0h11l1 1v7l-4 3h-8l-5-3-1-3 4-4z" fill="#D14E2D"/>
<path transform="translate(1445,412)" d="m0 0h54l5 1-2 2h-59v-2z" fill="#595253"/>
<path transform="translate(1073,345)" d="m0 0 1 3v122l-8 1-6 2-4-1 13-5h3v-119h-7v-1l7-1z" fill="#FCFAF9"/>
<path transform="translate(1016,514)" d="m0 0h9l2 1v5l-4 5-4 2-5-1-3-1-1-4 4-6z"/>
<path transform="translate(592,183)" d="m0 0h17l21 1 4 3-1 3-6-4h-57l-35 3-1-2 15-2 13-1z" fill="#E8D084"/>
<path transform="translate(1782,306)" d="m0 0h54l1 2-5 1h-49l-2-2z" fill="#531F15"/>
<path transform="translate(790,446)" d="m0 0 9 5 16 15 5 6v1h-11l-19-3 1-4 4 2 15 1v2h5l-3-5-7-7-5-4-4-1v-2h-3l-1 3-2-1z" fill="#E5CB73"/>
<path transform="translate(338,554)" d="m0 0h10l4 4v3l-7 2-13 1-1-2 4-6z" fill="#D14E2D"/>
<path transform="translate(484,577)" d="m0 0h12v11l-4-1h3v-3l-12 3h-2v-2h-2l-1-3 2-4z" fill="#D56F45"/>
<path transform="translate(1033,525)" d="m0 0h3v5h2l-1 6-2 1-1 3 2 1v-2l4-1 1 5-3 4-5-1-4-11 1-5z" fill="#DDB035"/>
<path transform="translate(1011,356)" d="m0 0 4 1-2 3-9 3-16 2-4 6-5 1-1-7 10-3z" fill="#E4C76A"/>
<path transform="translate(1132,343)" d="m0 0 1 2 35 1 6 3-1 5-10 5-5 6v2l-5-1v-2l6-4 6-5 6-4 1-2-5-1-25-1-8-1 1 23h9v1l-10 1-1-1z" fill="#FDFDFD"/>
<path transform="translate(1076,306)" d="m0 0h53l2 2-7 1h-50z" fill="#60271B"/>
<path transform="translate(1197,306)" d="m0 0h55l2 2-11 1h-45l-2-2z" fill="#66281B"/>
<path transform="translate(525,188)" d="m0 0h10v2h12v1l-5 1-2 5-4-1v-2l-5-1h-3l-1-1h-14l-1 1-14 1 3-2z" fill="#DEA453"/>
<path transform="translate(730,305)" d="m0 0h5l-4 3-1 108h-1v-110z" fill="#D57738"/>
<path transform="translate(1158,366)" d="m0 0 2 1v2l-6 5-16-1-2 4-5-1v-4l4 1v-2l10-2z" fill="#0A0103"/>
<path transform="translate(978,368)" d="m0 0 1 4 55 1-3 2h-38l-2 2-7 1-2-3-4-2z" fill="#090103"/>
<path transform="translate(608,280)" d="m0 0 15 1 25 3 23 4v2h-11l-2-1v-2h-8l-19-3-23-2z" fill="#E5CB74"/>
<path transform="translate(998,381)" d="m0 0h23l2 4-23 1-5-2z" fill="#080002"/>
<path transform="translate(577,329)" d="m0 0h2v2l4 2 3 6 1 5 7 13 2 2-1 4-3-3-7-14-8-14z" fill="#D57136"/>
<path transform="translate(646,479)" d="m0 0 5 1v1l-21 6-12 4-4-1 5-3 6-1v-2l11-3 9-1z" fill="#DE9E5C"/>
<path transform="translate(972,417)" d="m0 0 2 4 3-1 1 1v15l-1-4-3-1-1 6-2-3-2-7 2-3z" fill="#080002"/>
<path transform="translate(1008,534)" d="m0 0 14 1v1l-13 2-2 1v56l1 6-3-4v-59z" fill="#D67937"/>
<path transform="translate(901,548)" d="m0 0 2 3-1 3v38l-1 5h-1v-47z" fill="#140707"/>
<path transform="translate(709,458)" d="m0 0 1 4h2l-1 4 15-1h3l1 4-22 1 1-7z" fill="#DE9E58"/>
<path transform="translate(1134,414)" d="m0 0h6l3 3h-9l-1 1-1 61-2-3v-54l2-7z" fill="#201111"/>
<path transform="translate(708,307)" d="m0 0h6l4 5-3 3-4 2v6l1 2-2 6h-1z" fill="#D88739"/>
<path transform="translate(1513,440)" d="m0 0 3 3v34l-3 4-3-1 4-2z" fill="#857876"/>
<path transform="translate(903,509)" d="m0 0 4 2 10 10 2 1 3 6 6 5-1 3-3-1-6-8-4-5-8-8v-2h-2z" fill="#E7CF81"/>
<path transform="translate(554,573)" d="m0 0 3 1v2l-10 2-27 3-2 1 1-3 3-1h7v-2l23-1z" fill="#E7C088"/>
<path transform="translate(1021,611)" d="m0 0 10 1-3 3 1 2-5 2v3h-3l-1-2-4-1 3-4z" fill="#DDB035"/>
<path transform="translate(464,290)" d="m0 0 11 2-3 2-7 2 1 3 2 2-1 1h-6l-1-4-1-7z" fill="#D14E2D"/>
<path transform="translate(787,430)" d="m0 0 4 2-2 11-3 4-5-6 1-4 5-4z" fill="#261818"/>
<path transform="translate(981,423)" d="m0 0 3 1-1 4 4 4v2l-4-1v2h7l3 2-7 1v1h-7v-11z" fill="#E3C76A"/>
<path transform="translate(432,447)" d="m0 0h12v2h2l1 3h-25l1-2z" fill="#080002"/>
<path transform="translate(298,391)" d="m0 0 4 2 1 5-3 5h-5l-1-6 1-3z" fill="#090103"/>
<path transform="translate(1019,435)" d="m0 0h14l3 2 11 1v1h-24v-1l-13-1v-1z" fill="#E8CF81"/>
<path transform="translate(1078,439)" d="m0 0 2 1 1 18h2v4h-2l2 5v5h-3l1-3-3-1 1-1v-9l-1-1z" fill="#090103"/>
<path transform="translate(1046,413)" d="m0 0h2l1 7-5 4-9-2v-2l9-3z" fill="#DDB035"/>
<path transform="translate(896,369)" d="m0 0 1 2 5 2 13 7 4 1v3l-3 1-2-2-7-3-11-7z" fill="#E8D286"/>
<path transform="translate(992,361)" d="m0 0 3 1-1 2-7 2-3 5-5 1-1-7 10-3z" fill="#E7CE7D"/>
<path transform="translate(832,449)" d="m0 0 6 2 14 7v3h3l5 5-1 2-8-6-13-8-6-3z" fill="#E7CF80"/>
<path transform="translate(272,364)" d="m0 0h1v10l-1 3h2v8l-2 4-2-1-1-9-1-3 3-1z" fill="#080002"/>
<path transform="translate(686,292)" d="m0 0 8 1 17 4v1l-12 1-4-1-1-2-8-3z" fill="#E1B85E"/>
<path transform="translate(650,305)" d="m0 0h57l1 4-3-2-55-1z" fill="#D1502D"/>
<path transform="translate(430,210)" d="m0 0h5l-5 5-4-1-1 1-15 3v2h-5l-1-2z" fill="#EAC999"/>
<path transform="translate(585,518)" d="m0 0 8 6 7 8 3 4-7-2-4-3-1-7-4-2z" fill="#E4B378"/>
<path transform="translate(774,553)" d="m0 0h6l-4 2-3 2-1 44h-1v-46z" fill="#291513"/>
<path transform="translate(850,535)" d="m0 0 15 1 6 2-4 1h-8v-2l-13 1h-8l4-2z" fill="#764E46"/>
<path transform="translate(799,454)" d="m0 0 8 6 8 8v3h-5l1-4-4-3v-2l-3 1-4-4z" fill="#D67A37"/>
<path transform="translate(1131,346)" d="m0 0h2l1 24 1 3-4-1z" fill="#070102"/>
<path transform="translate(790,454)" d="m0 0 3 3v6h1l1-4 3 6v4l-5-1-3-1z" fill="#D56F36"/>
<path transform="translate(405,294)" d="m0 0h2l-1 4 17-3 4 1h-3v2l-14 2h-8l1-4z" fill="#E2BB61"/>
<path transform="translate(479,324)" d="m0 0h5l2 5-3 5-1 11-2 2v-10l-1-2v-6h5v-3l-5-1z" fill="#D14E2D"/>
<path transform="translate(1074,309)" d="m0 0 2 2v34l1 3-3 2z" fill="#080002"/>
<path transform="translate(551,300)" d="m0 0 5 1 4 2v2h-16l3-3z" fill="#D67938"/>
<path transform="translate(602,570)" d="m0 0 2 1v3h-22v2l-2-1 3-3z" fill="#ECD49D"/>
<path transform="translate(510,462)" d="m0 0 3 3 1 3 2 2-6 2-2-4v3l-3-1 1-6z" fill="#090103"/>
<path transform="translate(259,291)" d="m0 0v3l-4 3h-2l-4 8h-7l4-5 10-7z" fill="#E9C096"/>
<path transform="translate(791,466)" d="m0 0 4 2 15 1v2l2 1h-10l-12-2z" fill="#E4BB75"/>
<path transform="translate(1079,462)" d="m0 0h1v5l-1 1 2 1-1 5h-2l-1 3-2-2 1-11z"/>
<path transform="translate(978,368)" d="m0 0 1 4 14 1-2 4-7 1-2-3-4-2z" fill="#0D0203"/>
<path transform="translate(873,318)" d="m0 0 6 4 4 4-1 2h-4v-2h-2v-2h-4z" fill="#342220"/>
<path transform="translate(198,441)" d="m0 0 5 1v2l-3 1v5l-5-1-1-4z" fill="#090103"/>
<path transform="translate(790,432)" d="m0 0h10l1 3 11 3v3l-21-7z" fill="#E7C985"/>
<path transform="translate(714,298)" d="m0 0 10 2 17 5v1l-10-1-5-2-8-1-4-2z" fill="#E9D287"/>
<path transform="translate(462,228)" d="m0 0 6 1v4l-8 1-3-1 1-4z" fill="#D14E2D"/>
<path transform="translate(410,624)" d="m0 0 2 1-2 4-6 5-2-1 4-4-9-1 3-2z" fill="#E9CD90"/>
<path transform="translate(1047,397)" d="m0 0 6 2-1 5-2 1-5-2 1-5z" fill="#DDB035"/>
<path transform="translate(1049,382)" d="m0 0 4 1v6l-5 1-2-2 1-5z" fill="#DDB035"/>
<path transform="translate(584,343)" d="m0 0 3 1 7 13 2 2-1 4-3-3-7-14z" fill="#D46934"/>
<path transform="translate(402,219)" d="m0 0h2v3l-7 3-11 2v-2z" fill="#E9C894"/>
<path transform="translate(471,199)" d="m0 0 2 2-21 5-8 3-2-2 16-5z" fill="#E9D28C"/>
<path transform="translate(634,483)" d="m0 0h6l-4 2-18 6-4-1 5-3 8-1z" fill="#E5C576"/>
<path transform="translate(189,566)" d="m0 0 8 1 2 4-9 2z"/>
<path transform="translate(542,191)" d="m0 0h5v5l4-1 2 2-11 1v-3l-2-1z" fill="#D67839"/>
<path transform="translate(454,268)" d="m0 0h7l4 2-16 5-2 2-3-1 6-4 5-1z" fill="#D67B37"/>
<path transform="translate(195,469)" d="m0 0h6l2 4-1 1h-8v-4z" fill="#090103"/>
<path transform="translate(790,446)" d="m0 0 9 5v3h-3v-2h-3l-1 3-2-1z" fill="#E3AC78"/>
<path transform="translate(976,348)" d="m0 0 3 1-1 18-2 3-1-2v-7l1-4z" fill="#0E0709"/>
<path transform="translate(650,286)" d="m0 0h10l11 2v2h-11l-2-1v-2h-8z" fill="#E2C15C"/>
<path transform="translate(769,567)" d="m0 0h1l1 35-3 1z" fill="#190B0B"/>
<path transform="translate(1221,535)" d="m0 0 13 1v1h-16v2l-9-1 4-2z" fill="#744E47"/>
<path transform="translate(404,348)" d="m0 0h2v2l3 1-3 5v4l-3-1v-10z" fill="#D46834"/>
<path transform="translate(1031,307)" d="m0 0h18v3l-18-1z" fill="#130405"/>
<path transform="translate(480,587)" d="m0 0h5l-3 2 1 3-3 1v5l-2-4-4-1v-2h5l-1-3z" fill="#1B1011"/>
<path transform="translate(701,574)" d="m0 0 13 1v11l-2 1v-10h-11z" fill="#8A7471"/>
<path transform="translate(1147,562)" d="m0 0 4 1 3 2h-13l-7 1-3 1-2-2 11-2z" fill="#61342B"/>
<path transform="translate(1034,508)" d="m0 0h2v4h2v4h-2v2h-2v-4h-2l1-5z" fill="#DDB137"/>
<path transform="translate(979,416)" d="m0 0h12v1h-5l-1 3h-2l-1 2-3-1z" fill="#E2C460"/>
<path transform="translate(404,366)" d="m0 0 8 3 4 1v2h-11l-1-1z" fill="#D67839"/>
<path transform="translate(1051,431)" d="m0 0 5 2v6l-4-2-3-3z" fill="#DDB035"/>
<path transform="translate(338,637)" d="m0 0 1 2-5 3h8l-2 2-11 1 4-5h2v-2z" fill="#E7C97E"/>
<path transform="translate(488,542)" d="m0 0 6 1v4h-9l1-4z" fill="#080002"/>
<path transform="translate(595,497)" d="m0 0 2 1-10 5-7 2 3-3h2v-2z" fill="#E6C080"/>
<path transform="translate(885,408)" d="m0 0v3l-4 6-8 5-2-1 8-6z" fill="#D46B33"/>
<path transform="translate(518,252)" d="m0 0h6l3 3-16 2-3-2 4-1 6 1z" fill="#D78435"/>
<path transform="translate(437,208)" d="m0 0h7l-1 4h-6l-5 1 1-2h2v-2z" fill="#DB924C"/>
<path transform="translate(1072,466)" d="m0 0 2 1-1 3-7 1-6 2-4-1z" fill="#FDFDFD"/>
<path transform="translate(1049,337)" d="m0 0h1v10h-5l3-9z" fill="#0F080A"/>
<path transform="translate(453,302)" d="m0 0 8 1 3 2h-16l2-2z" fill="#D67839"/>
<path transform="translate(848,457)" d="m0 0 4 1v3h3l5 5-1 2-8-6-3-2z" fill="#E4C96F"/>
<path transform="translate(608,218)" d="m0 0 2 1-8 11-3 4 1-5 6-9z" fill="#E3C463"/>
<path transform="translate(401,296)" d="m0 0 2 1-1 3 14-1v1l-13 2-3 1v-6z" fill="#D67C37"/>
<path transform="translate(457,210)" d="m0 0 5 2-1 2h-4v2h-5l1-3z" fill="#D67839"/>
<path transform="translate(1201,540)" d="m0 0h2l-1 3h-2v4l-7 1 3-5z" fill="#543934"/>
<path transform="translate(354,238)" d="m0 0h2l-1 3h-4v2h-4v2l-6 1v-2z" fill="#E9C691"/>
<path transform="translate(621,203)" d="m0 0 3 1-13 13v-3l9-9z" fill="#E6CC76"/>
<path transform="translate(543,292)" d="m0 0 7 1v3l-6 1-2-4z" fill="#D67839"/>
<path transform="translate(426,213)" d="m0 0 3 1-2 2-9 1-3 2h-5l3-2 4-2 8-1z" fill="#D67A38"/>
<path transform="translate(920,527)" d="m0 0 8 6-1 3-3-1-4-5z" fill="#E8CE86"/>
<path transform="translate(815,468)" d="m0 0 4 2 1 3h-11l3-2h3z" fill="#F9F5E9"/>
<path transform="translate(620,341)" d="m0 0h2l-2 6-4 8h-1v-5z" fill="#D36634"/>
<path transform="translate(577,505)" d="m0 0 3 1-3 2 1 4 5 5-6-2-2-3v-5z" fill="#E1B95B"/>
<path transform="translate(414,386)" d="m0 0h2v7h-4l-1-5z" fill="#090103"/>
<path transform="translate(1137,370)" d="m0 0 2 1-3 6-5-1v-4l4 1v-2z" fill="#100304"/>
<path transform="translate(595,363)" d="m0 0h2l2 7h2l1 3-2 2-5-9z" fill="#D46C35"/>
</svg>
